<svg width="48" height="48" viewBox="0 0 48 48" fill="none" xmlns="http://www.w3.org/2000/svg">
<path d="M48 0H0V48H48V0Z" fill="#222222"/>
<path d="M30.5 0V8" stroke="white"/>
<path d="M0 8H31" stroke="white"/>
<path d="M7.68 1.764C7.972 1.764 8.22601 1.806 8.44201 1.89C8.65801 1.974 8.86001 2.102 9.04801 2.274L8.658 2.724C8.51 2.6 8.36 2.51 8.208 2.454C8.06 2.398 7.9 2.37 7.728 2.37C7.536 2.37 7.38 2.414 7.26 2.502C7.14401 2.586 7.086 2.706 7.086 2.862C7.086 2.966 7.108 3.052 7.152 3.12C7.2 3.188 7.284 3.252 7.404 3.312C7.524 3.372 7.702 3.438 7.938 3.51C8.346 3.638 8.652 3.798 8.856 3.99C9.064 4.178 9.168 4.454 9.168 4.818C9.168 5.066 9.104 5.286 8.976 5.478C8.852 5.67 8.672 5.82 8.436 5.928C8.2 6.036 7.92 6.09 7.596 6.09C7.28 6.09 6.996 6.04 6.744 5.94C6.496 5.836 6.28201 5.696 6.10201 5.52L6.51 5.064C6.67 5.2 6.836 5.304 7.008 5.376C7.18 5.444 7.37 5.478 7.578 5.478C7.806 5.478 7.99 5.424 8.13 5.316C8.27 5.208 8.34 5.056 8.34 4.86C8.34 4.74 8.316 4.642 8.268 4.566C8.22 4.486 8.13801 4.416 8.02201 4.356C7.90601 4.292 7.738 4.226 7.518 4.158C7.078 4.022 6.76 3.858 6.564 3.666C6.368 3.474 6.27 3.222 6.27 2.91C6.27 2.682 6.33 2.482 6.45 2.31C6.57 2.138 6.736 2.004 6.948 1.908C7.164 1.812 7.408 1.764 7.68 1.764ZM11.1154 2.736C11.5834 2.736 11.9474 2.886 12.2074 3.186C12.4714 3.482 12.6034 3.89 12.6034 4.41C12.6034 4.742 12.5434 5.036 12.4234 5.292C12.3034 5.544 12.1314 5.74 11.9074 5.88C11.6834 6.02 11.4174 6.09 11.1094 6.09C10.6414 6.09 10.2754 5.942 10.0114 5.646C9.74742 5.346 9.61543 4.934 9.61543 4.41C9.61543 4.078 9.67542 3.786 9.79542 3.534C9.91542 3.282 10.0874 3.086 10.3114 2.946C10.5394 2.806 10.8074 2.736 11.1154 2.736ZM11.1154 3.318C10.6554 3.318 10.4254 3.682 10.4254 4.41C10.4254 4.786 10.4814 5.064 10.5934 5.244C10.7094 5.42 10.8814 5.508 11.1094 5.508C11.3374 5.508 11.5074 5.418 11.6194 5.238C11.7354 5.058 11.7934 4.782 11.7934 4.41C11.7934 4.038 11.7354 3.764 11.6194 3.588C11.5074 3.408 11.3394 3.318 11.1154 3.318ZM15.8613 6H15.1953L15.1533 5.556C15.0373 5.736 14.8993 5.87 14.7393 5.958C14.5833 6.046 14.3973 6.09 14.1813 6.09C13.8973 6.09 13.6773 6.004 13.5213 5.832C13.3693 5.656 13.2933 5.414 13.2933 5.106V2.826H14.0613V5.01C14.0613 5.19 14.0913 5.318 14.1513 5.394C14.2153 5.47 14.3153 5.508 14.4513 5.508C14.6953 5.508 14.9093 5.358 15.0933 5.058V2.826H15.8613V6ZM18.3522 2.742C18.4682 2.742 18.5742 2.756 18.6702 2.784L18.5382 3.528C18.4422 3.504 18.3482 3.492 18.2562 3.492C18.0682 3.492 17.9202 3.56 17.8122 3.696C17.7042 3.828 17.6182 4.032 17.5542 4.308V6H16.7862V2.826H17.4522L17.5242 3.45C17.6002 3.222 17.7102 3.048 17.8542 2.928C17.9982 2.804 18.1642 2.742 18.3522 2.742ZM20.2439 2.736C20.4519 2.736 20.6379 2.766 20.8019 2.826C20.9699 2.886 21.1279 2.98 21.2759 3.108L20.9339 3.57C20.8259 3.49 20.7219 3.432 20.6219 3.396C20.5219 3.36 20.4119 3.342 20.2919 3.342C19.8159 3.342 19.5779 3.704 19.5779 4.428C19.5779 4.796 19.6399 5.062 19.7639 5.226C19.8879 5.386 20.0639 5.466 20.2919 5.466C20.4039 5.466 20.5059 5.448 20.5979 5.412C20.6939 5.376 20.8059 5.318 20.9339 5.238L21.2759 5.724C20.9759 5.968 20.6339 6.09 20.2499 6.09C19.9459 6.09 19.6819 6.024 19.4579 5.892C19.2339 5.756 19.0619 5.564 18.9419 5.316C18.8219 5.068 18.7619 4.776 18.7619 4.44C18.7619 4.104 18.8219 3.808 18.9419 3.552C19.0619 3.292 19.2339 3.092 19.4579 2.952C19.6819 2.808 19.9439 2.736 20.2439 2.736ZM24.318 4.338C24.318 4.378 24.312 4.482 24.3 4.65H22.308C22.332 4.958 22.412 5.178 22.548 5.31C22.684 5.442 22.864 5.508 23.088 5.508C23.228 5.508 23.36 5.486 23.484 5.442C23.608 5.394 23.74 5.322 23.88 5.226L24.198 5.664C23.846 5.948 23.454 6.09 23.022 6.09C22.538 6.09 22.164 5.942 21.9 5.646C21.64 5.35 21.51 4.946 21.51 4.434C21.51 4.11 21.566 3.82 21.678 3.564C21.79 3.304 21.952 3.102 22.164 2.958C22.376 2.81 22.628 2.736 22.92 2.736C23.364 2.736 23.708 2.878 23.952 3.162C24.196 3.442 24.318 3.834 24.318 4.338ZM23.556 4.116C23.556 3.56 23.35 3.282 22.938 3.282C22.75 3.282 22.602 3.352 22.494 3.492C22.39 3.628 22.328 3.848 22.308 4.152H23.556V4.116Z" fill="white"/>
<path d="M12.2517 18.76L8.13572 21.244L12.2517 23.716L11.5917 24.688L6.98372 21.82V20.656L11.6277 17.788L12.2517 18.76ZM15.211 16.72L16.807 19.696L18.427 16.72H19.903L17.611 20.524L20.167 25H18.619L16.783 21.484L14.935 25H13.459L15.955 20.596L13.663 16.72H15.211ZM27.3023 25H26.0183L25.8263 20.968C25.8023 20.44 25.7903 19.932 25.7903 19.444C25.7903 18.812 25.8023 18.312 25.8263 17.944L24.6023 23.536H23.3903L22.0823 17.944C22.1143 18.352 22.1303 18.98 22.1303 19.828C22.1303 20.34 22.1263 20.724 22.1183 20.98L21.9503 25H20.7023L21.1703 16.72H22.8383L24.0263 22.264L25.1543 16.72H26.8343L27.3023 25ZM29.0377 16.72H30.4177V23.836H34.1377L33.9817 25H29.0377V16.72ZM41.033 20.656V21.82L36.425 24.688L35.765 23.728L39.869 21.244L35.765 18.784L36.389 17.788L41.033 20.656ZM7.89806 29.952C7.44206 29.952 7.09406 30.02 6.85406 30.156C6.61406 30.284 6.51006 30.508 6.54206 30.828L6.75806 33.036C6.76606 33.108 6.77006 33.208 6.77006 33.336C6.77006 33.776 6.65006 34.112 6.41006 34.344C6.17806 34.568 5.83006 34.72 5.36606 34.8C5.84606 34.88 6.19806 35.028 6.42206 35.244C6.65406 35.46 6.77006 35.792 6.77006 36.24C6.77006 36.384 6.76606 36.492 6.75806 36.564L6.54206 38.772C6.51006 39.1 6.61406 39.328 6.85406 39.456C7.09406 39.584 7.44206 39.648 7.89806 39.648V40.644C7.05806 40.644 6.41006 40.512 5.95406 40.248C5.50606 39.992 5.28206 39.552 5.28206 38.928C5.28206 38.808 5.28606 38.716 5.29406 38.652L5.52206 36.576C5.53006 36.536 5.53406 36.472 5.53406 36.384C5.53406 36.016 5.39806 35.752 5.12606 35.592C4.85406 35.424 4.40206 35.34 3.77006 35.34V34.26C4.40206 34.26 4.85406 34.18 5.12606 34.02C5.39806 33.852 5.53406 33.584 5.53406 33.216C5.53406 33.136 5.53006 33.076 5.52206 33.036L5.29406 30.96C5.28606 30.896 5.28206 30.804 5.28206 30.684C5.28206 30.06 5.50606 29.616 5.95406 29.352C6.41006 29.088 7.05806 28.956 7.89806 28.956V29.952ZM15.7054 36.156C15.7054 37.028 15.4534 37.748 14.9494 38.316C14.4534 38.876 13.6974 39.156 12.6814 39.156C11.8094 39.156 11.0254 38.9 10.3294 38.388L10.8934 37.512C11.2054 37.712 11.5014 37.856 11.7814 37.944C12.0614 38.024 12.3454 38.064 12.6334 38.064C13.1534 38.064 13.5614 37.896 13.8574 37.56C14.1614 37.224 14.3134 36.748 14.3134 36.132V31.788H11.8294V30.72H15.7054V36.156ZM23.3927 36.66C23.3927 37.156 23.2647 37.592 23.0087 37.968C22.7607 38.344 22.3967 38.636 21.9167 38.844C21.4447 39.052 20.8807 39.156 20.2247 39.156C18.9447 39.156 17.9287 38.788 17.1767 38.052L17.9447 37.2C18.5687 37.776 19.3287 38.064 20.2247 38.064C20.7207 38.064 21.1287 37.948 21.4487 37.716C21.7767 37.484 21.9407 37.156 21.9407 36.732C21.9407 36.484 21.8887 36.276 21.7847 36.108C21.6887 35.94 21.5207 35.792 21.2807 35.664C21.0407 35.528 20.6967 35.392 20.2487 35.256C19.3287 34.984 18.6527 34.66 18.2207 34.284C17.7887 33.908 17.5727 33.412 17.5727 32.796C17.5727 32.356 17.6927 31.968 17.9327 31.632C18.1807 31.288 18.5207 31.024 18.9527 30.84C19.3847 30.648 19.8727 30.552 20.4167 30.552C21.5287 30.552 22.4527 30.884 23.1887 31.548L22.4567 32.376C21.8887 31.888 21.2367 31.644 20.5007 31.644C20.0527 31.644 19.6887 31.736 19.4087 31.92C19.1367 32.104 19.0007 32.368 19.0007 32.712C19.0007 32.928 19.0567 33.112 19.1687 33.264C19.2887 33.416 19.4847 33.556 19.7567 33.684C20.0367 33.804 20.4287 33.94 20.9327 34.092C21.7327 34.332 22.3407 34.64 22.7567 35.016C23.1807 35.392 23.3927 35.94 23.3927 36.66ZM30.744 34.86C30.744 36.172 30.472 37.216 29.928 37.992C29.392 38.768 28.616 39.156 27.6 39.156C26.584 39.156 25.804 38.776 25.26 38.016C24.724 37.248 24.456 36.2 24.456 34.872C24.456 33.56 24.724 32.512 25.26 31.728C25.804 30.944 26.584 30.552 27.6 30.552C28.616 30.552 29.392 30.94 29.928 31.716C30.472 32.484 30.744 33.532 30.744 34.86ZM29.316 34.86C29.316 33.772 29.18 32.964 28.908 32.436C28.636 31.908 28.2 31.644 27.6 31.644C27 31.644 26.564 31.908 26.292 32.436C26.02 32.964 25.884 33.776 25.884 34.872C25.884 35.952 26.02 36.756 26.292 37.284C26.572 37.812 27.008 38.076 27.6 38.076C28.2 38.076 28.636 37.812 28.908 37.284C29.18 36.756 29.316 35.948 29.316 34.86ZM33.0913 31.956C33.2193 33.268 33.2833 34.364 33.2833 35.244V39H32.0473V30.72H33.8593L36.4993 37.764C36.4433 37.172 36.3953 36.64 36.3553 36.168C36.3233 35.688 36.3073 35.128 36.3073 34.488V30.72H37.5433V39H35.7313L33.0913 31.956ZM40.1066 28.956C40.9466 28.956 41.5906 29.088 42.0386 29.352C42.4946 29.608 42.7226 30.048 42.7226 30.672C42.7226 30.792 42.7186 30.884 42.7106 30.948L42.4826 33.036L42.4706 33.204C42.4706 33.572 42.6106 33.84 42.8906 34.008C43.1786 34.176 43.6266 34.26 44.2346 34.26V35.34C43.6266 35.34 43.1786 35.428 42.8906 35.604C42.6106 35.772 42.4706 36.04 42.4706 36.408L42.4826 36.576L42.7106 38.64C42.7186 38.704 42.7226 38.796 42.7226 38.916C42.7226 39.54 42.4946 39.984 42.0386 40.248C41.5906 40.512 40.9466 40.644 40.1066 40.644V39.648C40.5626 39.648 40.9106 39.584 41.1506 39.456C41.3906 39.328 41.4946 39.1 41.4626 38.772L41.2466 36.564C41.2386 36.492 41.2346 36.388 41.2346 36.252C41.2346 35.804 41.3546 35.472 41.5946 35.256C41.8346 35.032 42.2106 34.884 42.7226 34.812C42.2186 34.724 41.8426 34.568 41.5946 34.344C41.3546 34.12 41.2346 33.784 41.2346 33.336C41.2346 33.208 41.2386 33.108 41.2466 33.036L41.4626 30.828C41.4946 30.508 41.3866 30.284 41.1386 30.156C40.8986 30.02 40.5546 29.952 40.1066 29.952V28.956Z" fill="white"/>
</svg>
