<svg width="48" height="48" viewBox="0 0 48 48" fill="none" xmlns="http://www.w3.org/2000/svg">
<rect width="48" height="48" fill="#222222"/>
<path d="M8.978 13.09L9.566 14.42L5.072 16.338L9.566 18.228L8.978 19.586L3.588 17.178V15.512L8.978 13.09ZM16.5627 21V16.674H13.1187V21H11.2707V11.326H13.1187V15.204H16.5627V11.326H18.4247V21H16.5627ZM29.847 21H28.041L27.789 16.954C27.705 15.5073 27.663 14.3593 27.663 13.51V13.006L25.899 19.95H24.149L22.273 12.992C22.2916 13.608 22.301 14.0747 22.301 14.392C22.301 15.2413 22.273 16.114 22.217 17.01L21.979 21H20.187L20.957 11.326H23.337L25.059 18.102L26.683 11.326H29.091L29.847 21ZM33.4761 11.326V19.488H37.3541L37.1441 21H31.6281V11.326H33.4761ZM38.3283 13.09L43.7183 15.512V17.178L38.3283 19.586L37.7403 18.228L42.2203 16.338L37.7403 14.42L38.3283 13.09ZM7.032 27.556C6.59333 27.556 6.28533 27.626 6.108 27.766C5.94 27.8967 5.856 28.1253 5.856 28.452V31.392C5.856 31.9333 5.75333 32.3253 5.548 32.568C5.34267 32.8107 5.02067 32.9927 4.582 33.114C5.02067 33.226 5.34267 33.4033 5.548 33.646C5.75333 33.8887 5.856 34.276 5.856 34.808V37.748C5.856 38.0747 5.94467 38.3033 6.122 38.434C6.29933 38.574 6.60267 38.644 7.032 38.644V39.932C6.304 39.932 5.73 39.8527 5.31 39.694C4.89933 39.5353 4.60533 39.2973 4.428 38.98C4.26 38.6627 4.176 38.2473 4.176 37.734V34.948C4.176 34.5373 4.106 34.2527 3.966 34.094C3.83533 33.926 3.59267 33.842 3.238 33.842V32.372C3.59267 32.372 3.83533 32.288 3.966 32.12C4.106 31.952 4.176 31.6627 4.176 31.252V28.466C4.176 27.9433 4.26 27.5233 4.428 27.206C4.60533 26.8887 4.89933 26.6553 5.31 26.506C5.72067 26.3473 6.29467 26.268 7.032 26.268V27.556ZM10.9931 36.586C10.9931 37.622 10.7458 38.4013 10.2511 38.924C9.76579 39.456 9.06579 39.8713 8.15113 40.17L7.66112 38.84C8.07179 38.6813 8.37979 38.4993 8.58513 38.294C8.79979 38.098 8.94446 37.8647 9.01913 37.594C9.09379 37.314 9.13113 36.9547 9.13113 36.516V28.326H10.9931V36.586ZM15.9845 28.116C16.6658 28.116 17.2585 28.214 17.7625 28.41C18.2665 28.606 18.7378 28.9047 19.1765 29.306L18.2665 30.356C17.9211 30.0667 17.5711 29.8567 17.2165 29.726C16.8711 29.5953 16.4978 29.53 16.0965 29.53C15.6485 29.53 15.2845 29.6327 15.0045 29.838C14.7338 30.034 14.5985 30.314 14.5985 30.678C14.5985 30.9207 14.6498 31.1213 14.7525 31.28C14.8645 31.4387 15.0605 31.588 15.3405 31.728C15.6205 31.868 16.0358 32.022 16.5865 32.19C17.5385 32.4887 18.2525 32.862 18.7285 33.31C19.2138 33.7487 19.4565 34.3927 19.4565 35.242C19.4565 35.8207 19.3071 36.334 19.0085 36.782C18.7191 37.23 18.2991 37.58 17.7485 37.832C17.1978 38.084 16.5445 38.21 15.7885 38.21C15.0511 38.21 14.3885 38.0933 13.8005 37.86C13.2218 37.6173 12.7225 37.2907 12.3025 36.88L13.2545 35.816C13.6278 36.1333 14.0151 36.376 14.4165 36.544C14.8178 36.7027 15.2611 36.782 15.7465 36.782C16.2785 36.782 16.7078 36.656 17.0345 36.404C17.3611 36.152 17.5245 35.7973 17.5245 35.34C17.5245 35.06 17.4685 34.8313 17.3565 34.654C17.2445 34.4673 17.0531 34.304 16.7825 34.164C16.5118 34.0147 16.1198 33.8607 15.6065 33.702C14.5798 33.3847 13.8378 33.002 13.3805 32.554C12.9231 32.106 12.6945 31.518 12.6945 30.79C12.6945 30.258 12.8345 29.7913 13.1145 29.39C13.3945 28.9887 13.7818 28.676 14.2765 28.452C14.7805 28.228 15.3498 28.116 15.9845 28.116ZM24.7424 28.116C25.6104 28.116 26.3618 28.312 26.9964 28.704C27.6311 29.096 28.1164 29.67 28.4524 30.426C28.7978 31.182 28.9704 32.092 28.9704 33.156C28.9704 34.2107 28.7978 35.116 28.4524 35.872C28.1071 36.628 27.6171 37.2067 26.9824 37.608C26.3478 38.0093 25.6011 38.21 24.7424 38.21C23.8744 38.21 23.1231 38.014 22.4884 37.622C21.8538 37.23 21.3638 36.656 21.0184 35.9C20.6731 35.144 20.5004 34.234 20.5004 33.17C20.5004 32.1247 20.6731 31.224 21.0184 30.468C21.3638 29.7027 21.8538 29.1193 22.4884 28.718C23.1324 28.3167 23.8838 28.116 24.7424 28.116ZM24.7424 29.53C23.9958 29.53 23.4264 29.824 23.0344 30.412C22.6424 30.9907 22.4464 31.91 22.4464 33.17C22.4464 35.5873 23.2118 36.796 24.7424 36.796C25.4891 36.796 26.0538 36.5067 26.4364 35.928C26.8284 35.3493 27.0244 34.4253 27.0244 33.156C27.0244 31.896 26.8284 30.9767 26.4364 30.398C26.0538 29.8193 25.4891 29.53 24.7424 29.53ZM37.8521 38H35.4581L32.1401 30.174C32.2241 30.8647 32.2848 31.49 32.3221 32.05C32.3688 32.61 32.3921 33.2773 32.3921 34.052V38H30.7121V28.326H33.0501L36.4241 36.166C36.3681 35.7927 36.3121 35.3027 36.2561 34.696C36.2001 34.08 36.1721 33.4687 36.1721 32.862V28.326H37.8521V38ZM39.4744 26.268C40.2117 26.268 40.7857 26.3473 41.1964 26.506C41.607 26.6553 41.8964 26.8887 42.0644 27.206C42.2417 27.5233 42.3304 27.9433 42.3304 28.466V31.252C42.3304 31.6627 42.3957 31.952 42.5264 32.12C42.6664 32.288 42.9184 32.372 43.2824 32.372V33.842C42.9184 33.842 42.6664 33.926 42.5264 34.094C42.3957 34.2527 42.3304 34.5373 42.3304 34.948V37.734C42.3304 38.2473 42.2417 38.6627 42.0644 38.98C41.8964 39.2973 41.6024 39.5353 41.1824 39.694C40.7717 39.8527 40.2024 39.932 39.4744 39.932V38.644C39.9037 38.644 40.207 38.574 40.3844 38.434C40.5617 38.3033 40.6504 38.0747 40.6504 37.748V34.808C40.6504 34.276 40.753 33.8887 40.9584 33.646C41.1637 33.4033 41.4857 33.226 41.9244 33.114C41.4857 32.9927 41.1637 32.8107 40.9584 32.568C40.753 32.3253 40.6504 31.9333 40.6504 31.392V28.452C40.6504 28.1253 40.5617 27.8967 40.3844 27.766C40.2164 27.626 39.913 27.556 39.4744 27.556V26.268Z" fill="#F9F9F9"/>
<path d="M30.5 0V8" stroke="white"/>
<path d="M0 8H31" stroke="white"/>
<path d="M7.68 1.764C7.972 1.764 8.226 1.806 8.442 1.89C8.658 1.974 8.86 2.102 9.048 2.274L8.658 2.724C8.51 2.6 8.36 2.51 8.208 2.454C8.06 2.398 7.9 2.37 7.728 2.37C7.536 2.37 7.38 2.414 7.26 2.502C7.144 2.586 7.086 2.706 7.086 2.862C7.086 2.966 7.108 3.052 7.152 3.12C7.2 3.188 7.284 3.252 7.404 3.312C7.524 3.372 7.702 3.438 7.938 3.51C8.346 3.638 8.652 3.798 8.856 3.99C9.064 4.178 9.168 4.454 9.168 4.818C9.168 5.066 9.104 5.286 8.976 5.478C8.852 5.67 8.672 5.82 8.436 5.928C8.2 6.036 7.92 6.09 7.596 6.09C7.28 6.09 6.996 6.04 6.744 5.94C6.496 5.836 6.282 5.696 6.102 5.52L6.51 5.064C6.67 5.2 6.836 5.304 7.008 5.376C7.18 5.444 7.37 5.478 7.578 5.478C7.806 5.478 7.99 5.424 8.13 5.316C8.27 5.208 8.34 5.056 8.34 4.86C8.34 4.74 8.316 4.642 8.268 4.566C8.22 4.486 8.138 4.416 8.022 4.356C7.906 4.292 7.738 4.226 7.518 4.158C7.078 4.022 6.76 3.858 6.564 3.666C6.368 3.474 6.27 3.222 6.27 2.91C6.27 2.682 6.33 2.482 6.45 2.31C6.57 2.138 6.736 2.004 6.948 1.908C7.164 1.812 7.408 1.764 7.68 1.764ZM11.1154 2.736C11.5834 2.736 11.9474 2.886 12.2074 3.186C12.4714 3.482 12.6034 3.89 12.6034 4.41C12.6034 4.742 12.5434 5.036 12.4234 5.292C12.3034 5.544 12.1314 5.74 11.9074 5.88C11.6834 6.02 11.4174 6.09 11.1094 6.09C10.6414 6.09 10.2754 5.942 10.0114 5.646C9.74742 5.346 9.61542 4.934 9.61542 4.41C9.61542 4.078 9.67542 3.786 9.79542 3.534C9.91542 3.282 10.0874 3.086 10.3114 2.946C10.5394 2.806 10.8074 2.736 11.1154 2.736ZM11.1154 3.318C10.6554 3.318 10.4254 3.682 10.4254 4.41C10.4254 4.786 10.4814 5.064 10.5934 5.244C10.7094 5.42 10.8814 5.508 11.1094 5.508C11.3374 5.508 11.5074 5.418 11.6194 5.238C11.7354 5.058 11.7934 4.782 11.7934 4.41C11.7934 4.038 11.7354 3.764 11.6194 3.588C11.5074 3.408 11.3394 3.318 11.1154 3.318ZM15.8613 6H15.1953L15.1533 5.556C15.0373 5.736 14.8993 5.87 14.7393 5.958C14.5833 6.046 14.3973 6.09 14.1813 6.09C13.8973 6.09 13.6773 6.004 13.5213 5.832C13.3693 5.656 13.2933 5.414 13.2933 5.106V2.826H14.0613V5.01C14.0613 5.19 14.0913 5.318 14.1513 5.394C14.2153 5.47 14.3153 5.508 14.4513 5.508C14.6953 5.508 14.9093 5.358 15.0933 5.058V2.826H15.8613V6ZM18.3522 2.742C18.4682 2.742 18.5742 2.756 18.6702 2.784L18.5382 3.528C18.4422 3.504 18.3482 3.492 18.2562 3.492C18.0682 3.492 17.9202 3.56 17.8122 3.696C17.7042 3.828 17.6182 4.032 17.5542 4.308V6H16.7862V2.826H17.4522L17.5242 3.45C17.6002 3.222 17.7102 3.048 17.8542 2.928C17.9982 2.804 18.1642 2.742 18.3522 2.742ZM20.2439 2.736C20.4519 2.736 20.6379 2.766 20.8019 2.826C20.9699 2.886 21.1279 2.98 21.2759 3.108L20.9339 3.57C20.8259 3.49 20.7219 3.432 20.6219 3.396C20.5219 3.36 20.4119 3.342 20.2919 3.342C19.8159 3.342 19.5779 3.704 19.5779 4.428C19.5779 4.796 19.6399 5.062 19.7639 5.226C19.8879 5.386 20.0639 5.466 20.2919 5.466C20.4039 5.466 20.5059 5.448 20.5979 5.412C20.6939 5.376 20.8059 5.318 20.9339 5.238L21.2759 5.724C20.9759 5.968 20.6339 6.09 20.2499 6.09C19.9459 6.09 19.6819 6.024 19.4579 5.892C19.2339 5.756 19.0619 5.564 18.9419 5.316C18.8219 5.068 18.7619 4.776 18.7619 4.44C18.7619 4.104 18.8219 3.808 18.9419 3.552C19.0619 3.292 19.2339 3.092 19.4579 2.952C19.6819 2.808 19.9439 2.736 20.2439 2.736ZM24.318 4.338C24.318 4.378 24.312 4.482 24.3 4.65H22.308C22.332 4.958 22.412 5.178 22.548 5.31C22.684 5.442 22.864 5.508 23.088 5.508C23.228 5.508 23.36 5.486 23.484 5.442C23.608 5.394 23.74 5.322 23.88 5.226L24.198 5.664C23.846 5.948 23.454 6.09 23.022 6.09C22.538 6.09 22.164 5.942 21.9 5.646C21.64 5.35 21.51 4.946 21.51 4.434C21.51 4.11 21.566 3.82 21.678 3.564C21.79 3.304 21.952 3.102 22.164 2.958C22.376 2.81 22.628 2.736 22.92 2.736C23.364 2.736 23.708 2.878 23.952 3.162C24.196 3.442 24.318 3.834 24.318 4.338ZM23.556 4.116C23.556 3.56 23.35 3.282 22.938 3.282C22.75 3.282 22.602 3.352 22.494 3.492C22.39 3.628 22.328 3.848 22.308 4.152H23.556V4.116Z" fill="white"/>
</svg>
